<mxfile host="app.diagrams.net" agent="Mozilla/5.0 (Windows NT 10.0; Win64; x64) AppleWebKit/537.36 (KHTML, like Gecko) Chrome/129.0.0.0 Safari/537.36" version="24.7.17">
  <diagram name="Page-1" id="c_LCABILMxUyAc0WRoHO">
    <mxGraphModel dx="1590" dy="930" grid="1" gridSize="10" guides="1" tooltips="1" connect="1" arrows="1" fold="1" page="1" pageScale="1" pageWidth="850" pageHeight="1100" math="0" shadow="0">
      <root>
        <mxCell id="0" />
        <mxCell id="1" parent="0" />
        <mxCell id="c-2ZzgYbZCkKLCKXprvc-1" value="Users" style="rounded=0;whiteSpace=wrap;html=1;" vertex="1" parent="1">
          <mxGeometry x="360" y="260" width="120" height="60" as="geometry" />
        </mxCell>
        <mxCell id="c-2ZzgYbZCkKLCKXprvc-4" value="Id" style="ellipse;whiteSpace=wrap;html=1;" vertex="1" parent="1">
          <mxGeometry x="220" y="240" width="120" height="80" as="geometry" />
        </mxCell>
        <mxCell id="c-2ZzgYbZCkKLCKXprvc-5" value="" style="endArrow=none;html=1;rounded=0;entryX=1;entryY=0.5;entryDx=0;entryDy=0;exitX=0;exitY=0.5;exitDx=0;exitDy=0;" edge="1" parent="1" source="c-2ZzgYbZCkKLCKXprvc-1" target="c-2ZzgYbZCkKLCKXprvc-4">
          <mxGeometry width="50" height="50" relative="1" as="geometry">
            <mxPoint x="540" y="300" as="sourcePoint" />
            <mxPoint x="590" y="250" as="targetPoint" />
          </mxGeometry>
        </mxCell>
        <mxCell id="c-2ZzgYbZCkKLCKXprvc-6" value="" style="endArrow=none;html=1;rounded=0;exitX=0.5;exitY=0;exitDx=0;exitDy=0;" edge="1" parent="1" source="c-2ZzgYbZCkKLCKXprvc-1" target="c-2ZzgYbZCkKLCKXprvc-7">
          <mxGeometry width="50" height="50" relative="1" as="geometry">
            <mxPoint x="420" y="240" as="sourcePoint" />
            <mxPoint x="390" y="140" as="targetPoint" />
          </mxGeometry>
        </mxCell>
        <mxCell id="c-2ZzgYbZCkKLCKXprvc-7" value="Reputation" style="ellipse;whiteSpace=wrap;html=1;" vertex="1" parent="1">
          <mxGeometry x="350" y="160" width="120" height="80" as="geometry" />
        </mxCell>
        <mxCell id="c-2ZzgYbZCkKLCKXprvc-8" value="" style="endArrow=none;html=1;rounded=0;exitX=0;exitY=0;exitDx=0;exitDy=0;" edge="1" parent="1" source="c-2ZzgYbZCkKLCKXprvc-1" target="c-2ZzgYbZCkKLCKXprvc-9">
          <mxGeometry width="50" height="50" relative="1" as="geometry">
            <mxPoint x="540" y="300" as="sourcePoint" />
            <mxPoint x="320" y="210" as="targetPoint" />
          </mxGeometry>
        </mxCell>
        <mxCell id="c-2ZzgYbZCkKLCKXprvc-9" value="CreationDate" style="ellipse;whiteSpace=wrap;html=1;" vertex="1" parent="1">
          <mxGeometry x="220" y="150" width="120" height="80" as="geometry" />
        </mxCell>
        <mxCell id="c-2ZzgYbZCkKLCKXprvc-10" value="" style="endArrow=none;html=1;rounded=0;exitX=1;exitY=0;exitDx=0;exitDy=0;" edge="1" parent="1" source="c-2ZzgYbZCkKLCKXprvc-1" target="c-2ZzgYbZCkKLCKXprvc-11">
          <mxGeometry width="50" height="50" relative="1" as="geometry">
            <mxPoint x="540" y="300" as="sourcePoint" />
            <mxPoint x="590" y="250" as="targetPoint" />
          </mxGeometry>
        </mxCell>
        <mxCell id="c-2ZzgYbZCkKLCKXprvc-11" value="AboutMe" style="ellipse;whiteSpace=wrap;html=1;dashed=1;" vertex="1" parent="1">
          <mxGeometry x="540" y="190" width="70" height="60" as="geometry" />
        </mxCell>
        <mxCell id="c-2ZzgYbZCkKLCKXprvc-12" value="" style="endArrow=none;html=1;rounded=0;exitX=1;exitY=0.5;exitDx=0;exitDy=0;" edge="1" parent="1" source="c-2ZzgYbZCkKLCKXprvc-1" target="c-2ZzgYbZCkKLCKXprvc-13">
          <mxGeometry width="50" height="50" relative="1" as="geometry">
            <mxPoint x="540" y="300" as="sourcePoint" />
            <mxPoint x="590" y="250" as="targetPoint" />
          </mxGeometry>
        </mxCell>
        <mxCell id="c-2ZzgYbZCkKLCKXprvc-13" value="WebsiteUrl" style="ellipse;whiteSpace=wrap;html=1;dashed=1;" vertex="1" parent="1">
          <mxGeometry x="510" y="260" width="120" height="80" as="geometry" />
        </mxCell>
        <mxCell id="c-2ZzgYbZCkKLCKXprvc-16" value="" style="endArrow=none;html=1;rounded=0;exitX=0.5;exitY=0;exitDx=0;exitDy=0;" edge="1" parent="1" source="c-2ZzgYbZCkKLCKXprvc-17">
          <mxGeometry width="50" height="50" relative="1" as="geometry">
            <mxPoint x="337" y="392" as="sourcePoint" />
            <mxPoint x="360" y="322" as="targetPoint" />
          </mxGeometry>
        </mxCell>
        <mxCell id="c-2ZzgYbZCkKLCKXprvc-17" value="Write" style="rhombus;whiteSpace=wrap;html=1;" vertex="1" parent="1">
          <mxGeometry x="277" y="330" width="80" height="80" as="geometry" />
        </mxCell>
        <mxCell id="c-2ZzgYbZCkKLCKXprvc-20" value="" style="endArrow=none;html=1;rounded=0;entryX=0.5;entryY=1;entryDx=0;entryDy=0;exitX=0.5;exitY=0;exitDx=0;exitDy=0;" edge="1" parent="1" source="c-2ZzgYbZCkKLCKXprvc-21" target="c-2ZzgYbZCkKLCKXprvc-17">
          <mxGeometry width="50" height="50" relative="1" as="geometry">
            <mxPoint x="320" y="532" as="sourcePoint" />
            <mxPoint x="300.0000000000002" y="410" as="targetPoint" />
          </mxGeometry>
        </mxCell>
        <mxCell id="c-2ZzgYbZCkKLCKXprvc-21" value="Comments" style="rounded=0;whiteSpace=wrap;html=1;" vertex="1" parent="1">
          <mxGeometry x="140" y="360" width="120" height="60" as="geometry" />
        </mxCell>
        <mxCell id="c-2ZzgYbZCkKLCKXprvc-22" value="" style="endArrow=none;html=1;rounded=0;entryX=0.5;entryY=1;entryDx=0;entryDy=0;" edge="1" parent="1" source="c-2ZzgYbZCkKLCKXprvc-23" target="c-2ZzgYbZCkKLCKXprvc-1">
          <mxGeometry width="50" height="50" relative="1" as="geometry">
            <mxPoint x="390" y="540" as="sourcePoint" />
            <mxPoint x="460" y="470" as="targetPoint" />
          </mxGeometry>
        </mxCell>
        <mxCell id="c-2ZzgYbZCkKLCKXprvc-24" value="" style="endArrow=none;html=1;rounded=0;entryX=0;entryY=1;entryDx=0;entryDy=0;exitX=0;exitY=0.5;exitDx=0;exitDy=0;" edge="1" parent="1" source="c-2ZzgYbZCkKLCKXprvc-25" target="c-2ZzgYbZCkKLCKXprvc-23">
          <mxGeometry width="50" height="50" relative="1" as="geometry">
            <mxPoint x="290" y="580" as="sourcePoint" />
            <mxPoint x="690" y="560" as="targetPoint" />
          </mxGeometry>
        </mxCell>
        <mxCell id="c-2ZzgYbZCkKLCKXprvc-25" value="Posts" style="rounded=0;whiteSpace=wrap;html=1;" vertex="1" parent="1">
          <mxGeometry x="450" y="450" width="120" height="60" as="geometry" />
        </mxCell>
        <mxCell id="c-2ZzgYbZCkKLCKXprvc-23" value="Publish" style="rhombus;whiteSpace=wrap;html=1;" vertex="1" parent="1">
          <mxGeometry x="380" y="350" width="80" height="80" as="geometry" />
        </mxCell>
        <mxCell id="c-2ZzgYbZCkKLCKXprvc-27" value="" style="endArrow=none;html=1;rounded=0;entryX=1;entryY=1;entryDx=0;entryDy=0;" edge="1" parent="1" target="c-2ZzgYbZCkKLCKXprvc-1">
          <mxGeometry width="50" height="50" relative="1" as="geometry">
            <mxPoint x="500" y="370" as="sourcePoint" />
            <mxPoint x="590" y="410" as="targetPoint" />
          </mxGeometry>
        </mxCell>
        <mxCell id="c-2ZzgYbZCkKLCKXprvc-28" value="Rate" style="rhombus;whiteSpace=wrap;html=1;" vertex="1" parent="1">
          <mxGeometry x="470" y="340" width="80" height="80" as="geometry" />
        </mxCell>
        <mxCell id="c-2ZzgYbZCkKLCKXprvc-31" value="" style="endArrow=none;html=1;rounded=0;exitX=0.25;exitY=0;exitDx=0;exitDy=0;" edge="1" parent="1" source="c-2ZzgYbZCkKLCKXprvc-25" target="c-2ZzgYbZCkKLCKXprvc-28">
          <mxGeometry width="50" height="50" relative="1" as="geometry">
            <mxPoint x="580" y="450" as="sourcePoint" />
            <mxPoint x="590" y="410" as="targetPoint" />
          </mxGeometry>
        </mxCell>
        <mxCell id="c-2ZzgYbZCkKLCKXprvc-32" value="" style="endArrow=none;html=1;rounded=0;entryX=0.25;entryY=1;entryDx=0;entryDy=0;" edge="1" parent="1" target="c-2ZzgYbZCkKLCKXprvc-1">
          <mxGeometry width="50" height="50" relative="1" as="geometry">
            <mxPoint x="280" y="610" as="sourcePoint" />
            <mxPoint x="590" y="410" as="targetPoint" />
          </mxGeometry>
        </mxCell>
        <mxCell id="c-2ZzgYbZCkKLCKXprvc-33" value="Get" style="rhombus;whiteSpace=wrap;html=1;" vertex="1" parent="1">
          <mxGeometry x="240" y="600" width="80" height="80" as="geometry" />
        </mxCell>
        <mxCell id="c-2ZzgYbZCkKLCKXprvc-34" value="" style="endArrow=none;html=1;rounded=0;entryX=0.5;entryY=1;entryDx=0;entryDy=0;" edge="1" parent="1" target="c-2ZzgYbZCkKLCKXprvc-33">
          <mxGeometry width="50" height="50" relative="1" as="geometry">
            <mxPoint x="280" y="750" as="sourcePoint" />
            <mxPoint x="590" y="410" as="targetPoint" />
          </mxGeometry>
        </mxCell>
        <mxCell id="c-2ZzgYbZCkKLCKXprvc-35" value="Badges" style="rounded=0;whiteSpace=wrap;html=1;" vertex="1" parent="1">
          <mxGeometry x="220" y="720" width="120" height="60" as="geometry" />
        </mxCell>
        <mxCell id="c-2ZzgYbZCkKLCKXprvc-36" value="" style="endArrow=none;html=1;rounded=0;exitX=1;exitY=0;exitDx=0;exitDy=0;entryX=0;entryY=0.5;entryDx=0;entryDy=0;" edge="1" parent="1" source="c-2ZzgYbZCkKLCKXprvc-25" target="c-2ZzgYbZCkKLCKXprvc-37">
          <mxGeometry width="50" height="50" relative="1" as="geometry">
            <mxPoint x="540" y="460" as="sourcePoint" />
            <mxPoint x="590" y="410" as="targetPoint" />
          </mxGeometry>
        </mxCell>
        <mxCell id="c-2ZzgYbZCkKLCKXprvc-37" value="Link" style="rhombus;whiteSpace=wrap;html=1;" vertex="1" parent="1">
          <mxGeometry x="680" y="430" width="80" height="80" as="geometry" />
        </mxCell>
        <mxCell id="c-2ZzgYbZCkKLCKXprvc-38" value="" style="endArrow=none;html=1;rounded=0;entryX=0;entryY=0.5;entryDx=0;entryDy=0;exitX=1;exitY=0.25;exitDx=0;exitDy=0;" edge="1" parent="1" source="c-2ZzgYbZCkKLCKXprvc-25" target="c-2ZzgYbZCkKLCKXprvc-37">
          <mxGeometry width="50" height="50" relative="1" as="geometry">
            <mxPoint x="540" y="460" as="sourcePoint" />
            <mxPoint x="590" y="410" as="targetPoint" />
          </mxGeometry>
        </mxCell>
        <mxCell id="c-2ZzgYbZCkKLCKXprvc-39" value="" style="endArrow=none;html=1;rounded=0;exitX=0.75;exitY=0;exitDx=0;exitDy=0;" edge="1" parent="1" source="c-2ZzgYbZCkKLCKXprvc-25" target="c-2ZzgYbZCkKLCKXprvc-40">
          <mxGeometry width="50" height="50" relative="1" as="geometry">
            <mxPoint x="540" y="460" as="sourcePoint" />
            <mxPoint x="590" y="410" as="targetPoint" />
          </mxGeometry>
        </mxCell>
        <mxCell id="c-2ZzgYbZCkKLCKXprvc-40" value="Have" style="rhombus;whiteSpace=wrap;html=1;" vertex="1" parent="1">
          <mxGeometry x="590" y="360" width="80" height="80" as="geometry" />
        </mxCell>
        <mxCell id="c-2ZzgYbZCkKLCKXprvc-41" value="" style="endArrow=none;html=1;rounded=0;entryX=1;entryY=0;entryDx=0;entryDy=0;" edge="1" parent="1" target="c-2ZzgYbZCkKLCKXprvc-40">
          <mxGeometry width="50" height="50" relative="1" as="geometry">
            <mxPoint x="740" y="380" as="sourcePoint" />
            <mxPoint x="590" y="410" as="targetPoint" />
          </mxGeometry>
        </mxCell>
        <mxCell id="c-2ZzgYbZCkKLCKXprvc-42" value="Tags" style="rounded=0;whiteSpace=wrap;html=1;" vertex="1" parent="1">
          <mxGeometry x="700" y="350" width="120" height="60" as="geometry" />
        </mxCell>
        <mxCell id="c-2ZzgYbZCkKLCKXprvc-43" value="" style="endArrow=none;html=1;rounded=0;exitX=0;exitY=0.75;exitDx=0;exitDy=0;" edge="1" parent="1" source="c-2ZzgYbZCkKLCKXprvc-25" target="c-2ZzgYbZCkKLCKXprvc-44">
          <mxGeometry width="50" height="50" relative="1" as="geometry">
            <mxPoint x="540" y="460" as="sourcePoint" />
            <mxPoint x="410" y="500" as="targetPoint" />
          </mxGeometry>
        </mxCell>
        <mxCell id="c-2ZzgYbZCkKLCKXprvc-44" value="Id" style="ellipse;whiteSpace=wrap;html=1;" vertex="1" parent="1">
          <mxGeometry x="370" y="460" width="50" height="30" as="geometry" />
        </mxCell>
        <mxCell id="c-2ZzgYbZCkKLCKXprvc-45" value="" style="endArrow=none;html=1;rounded=0;exitX=0.25;exitY=1;exitDx=0;exitDy=0;entryX=0.5;entryY=0;entryDx=0;entryDy=0;" edge="1" parent="1" source="c-2ZzgYbZCkKLCKXprvc-25" target="c-2ZzgYbZCkKLCKXprvc-47">
          <mxGeometry width="50" height="50" relative="1" as="geometry">
            <mxPoint x="540" y="460" as="sourcePoint" />
            <mxPoint x="495.6316920367931" y="533.4475380551896" as="targetPoint" />
          </mxGeometry>
        </mxCell>
        <mxCell id="c-2ZzgYbZCkKLCKXprvc-47" value="Title" style="ellipse;whiteSpace=wrap;html=1;dashed=1;" vertex="1" parent="1">
          <mxGeometry x="340" y="600" width="70" height="40" as="geometry" />
        </mxCell>
        <mxCell id="c-2ZzgYbZCkKLCKXprvc-48" value="" style="endArrow=none;html=1;rounded=0;entryX=0.861;entryY=1.028;entryDx=0;entryDy=0;entryPerimeter=0;" edge="1" parent="1" target="c-2ZzgYbZCkKLCKXprvc-25">
          <mxGeometry width="50" height="50" relative="1" as="geometry">
            <mxPoint x="630" y="550" as="sourcePoint" />
            <mxPoint x="540" y="500" as="targetPoint" />
          </mxGeometry>
        </mxCell>
        <mxCell id="c-2ZzgYbZCkKLCKXprvc-49" value="Body" style="ellipse;whiteSpace=wrap;html=1;dashed=1;" vertex="1" parent="1">
          <mxGeometry x="580" y="520" width="60" height="40" as="geometry" />
        </mxCell>
        <mxCell id="c-2ZzgYbZCkKLCKXprvc-50" value="" style="endArrow=none;html=1;rounded=0;exitX=0;exitY=1;exitDx=0;exitDy=0;entryX=1;entryY=0;entryDx=0;entryDy=0;" edge="1" parent="1" source="c-2ZzgYbZCkKLCKXprvc-25" target="c-2ZzgYbZCkKLCKXprvc-51">
          <mxGeometry width="50" height="50" relative="1" as="geometry">
            <mxPoint x="385" y="530" as="sourcePoint" />
            <mxPoint x="400.6316920367931" y="553.4475380551896" as="targetPoint" />
          </mxGeometry>
        </mxCell>
        <mxCell id="c-2ZzgYbZCkKLCKXprvc-51" value="Score" style="ellipse;whiteSpace=wrap;html=1;" vertex="1" parent="1">
          <mxGeometry x="370" y="510" width="70" height="40" as="geometry" />
        </mxCell>
        <mxCell id="c-2ZzgYbZCkKLCKXprvc-53" value="" style="endArrow=none;html=1;rounded=0;exitX=0.75;exitY=1;exitDx=0;exitDy=0;entryX=0;entryY=0;entryDx=0;entryDy=0;" edge="1" parent="1" source="c-2ZzgYbZCkKLCKXprvc-25" target="c-2ZzgYbZCkKLCKXprvc-54">
          <mxGeometry width="50" height="50" relative="1" as="geometry">
            <mxPoint x="540" y="590" as="sourcePoint" />
            <mxPoint x="595.6316920367931" y="683.4475380551896" as="targetPoint" />
          </mxGeometry>
        </mxCell>
        <mxCell id="c-2ZzgYbZCkKLCKXprvc-54" value="ContentLicense" style="ellipse;whiteSpace=wrap;html=1;" vertex="1" parent="1">
          <mxGeometry x="620" y="610" width="90" height="50" as="geometry" />
        </mxCell>
        <mxCell id="c-2ZzgYbZCkKLCKXprvc-55" value="" style="endArrow=none;html=1;rounded=0;exitX=0.66;exitY=1.014;exitDx=0;exitDy=0;entryX=0;entryY=0;entryDx=0;entryDy=0;exitPerimeter=0;" edge="1" parent="1" target="c-2ZzgYbZCkKLCKXprvc-56" source="c-2ZzgYbZCkKLCKXprvc-25">
          <mxGeometry width="50" height="50" relative="1" as="geometry">
            <mxPoint x="570" y="620" as="sourcePoint" />
            <mxPoint x="520.6316920367931" y="663.4475380551896" as="targetPoint" />
          </mxGeometry>
        </mxCell>
        <mxCell id="c-2ZzgYbZCkKLCKXprvc-56" value="AnswerCount" style="ellipse;whiteSpace=wrap;html=1;dashed=1;" vertex="1" parent="1">
          <mxGeometry x="650" y="720" width="90" height="50" as="geometry" />
        </mxCell>
        <mxCell id="c-2ZzgYbZCkKLCKXprvc-57" value="" style="endArrow=none;html=1;rounded=0;exitX=0.25;exitY=1;exitDx=0;exitDy=0;entryX=1;entryY=0;entryDx=0;entryDy=0;" edge="1" parent="1" target="c-2ZzgYbZCkKLCKXprvc-58" source="c-2ZzgYbZCkKLCKXprvc-25">
          <mxGeometry width="50" height="50" relative="1" as="geometry">
            <mxPoint x="465" y="650" as="sourcePoint" />
            <mxPoint x="415.6316920367931" y="693.4475380551896" as="targetPoint" />
          </mxGeometry>
        </mxCell>
        <mxCell id="c-2ZzgYbZCkKLCKXprvc-58" value="CommentCount" style="ellipse;whiteSpace=wrap;html=1;" vertex="1" parent="1">
          <mxGeometry x="340" y="650" width="95" height="40" as="geometry" />
        </mxCell>
        <mxCell id="c-2ZzgYbZCkKLCKXprvc-59" value="" style="endArrow=none;html=1;rounded=0;exitX=0.25;exitY=1;exitDx=0;exitDy=0;entryX=1;entryY=0;entryDx=0;entryDy=0;" edge="1" parent="1" target="c-2ZzgYbZCkKLCKXprvc-60" source="c-2ZzgYbZCkKLCKXprvc-25">
          <mxGeometry width="50" height="50" relative="1" as="geometry">
            <mxPoint x="480" y="700" as="sourcePoint" />
            <mxPoint x="430.6316920367931" y="743.4475380551896" as="targetPoint" />
          </mxGeometry>
        </mxCell>
        <mxCell id="c-2ZzgYbZCkKLCKXprvc-60" value="CreationDate" style="ellipse;whiteSpace=wrap;html=1;" vertex="1" parent="1">
          <mxGeometry x="390" y="700" width="80" height="40" as="geometry" />
        </mxCell>
        <mxCell id="c-2ZzgYbZCkKLCKXprvc-61" value="" style="endArrow=none;html=1;rounded=0;exitX=0.25;exitY=1;exitDx=0;exitDy=0;entryX=0;entryY=0;entryDx=0;entryDy=0;" edge="1" parent="1" target="c-2ZzgYbZCkKLCKXprvc-62" source="c-2ZzgYbZCkKLCKXprvc-25">
          <mxGeometry width="50" height="50" relative="1" as="geometry">
            <mxPoint x="570" y="710" as="sourcePoint" />
            <mxPoint x="520.6316920367931" y="753.4475380551896" as="targetPoint" />
          </mxGeometry>
        </mxCell>
        <mxCell id="c-2ZzgYbZCkKLCKXprvc-62" value="OwnerUserId" style="ellipse;whiteSpace=wrap;html=1;" vertex="1" parent="1">
          <mxGeometry x="470" y="710" width="90" height="50" as="geometry" />
        </mxCell>
        <mxCell id="c-2ZzgYbZCkKLCKXprvc-63" value="" style="endArrow=none;html=1;rounded=0;exitX=0.868;exitY=0;exitDx=0;exitDy=0;entryX=1;entryY=0;entryDx=0;entryDy=0;exitPerimeter=0;" edge="1" parent="1" target="c-2ZzgYbZCkKLCKXprvc-64" source="c-2ZzgYbZCkKLCKXprvc-1">
          <mxGeometry width="50" height="50" relative="1" as="geometry">
            <mxPoint x="590" y="80" as="sourcePoint" />
            <mxPoint x="540.6316920367931" y="123.44753805518963" as="targetPoint" />
          </mxGeometry>
        </mxCell>
        <mxCell id="c-2ZzgYbZCkKLCKXprvc-64" value="Num_Badges" style="ellipse;whiteSpace=wrap;html=1;" vertex="1" parent="1">
          <mxGeometry x="480" y="150" width="90" height="40" as="geometry" />
        </mxCell>
        <mxCell id="c-2ZzgYbZCkKLCKXprvc-65" value="" style="endArrow=none;html=1;rounded=0;exitX=0.368;exitY=1.014;exitDx=0;exitDy=0;entryX=0;entryY=0;entryDx=0;entryDy=0;exitPerimeter=0;" edge="1" parent="1" target="c-2ZzgYbZCkKLCKXprvc-66" source="c-2ZzgYbZCkKLCKXprvc-25">
          <mxGeometry width="50" height="50" relative="1" as="geometry">
            <mxPoint x="510" y="570" as="sourcePoint" />
            <mxPoint x="460.6316920367931" y="613.4475380551896" as="targetPoint" />
          </mxGeometry>
        </mxCell>
        <mxCell id="c-2ZzgYbZCkKLCKXprvc-66" value="Avg_Rating" style="ellipse;whiteSpace=wrap;html=1;" vertex="1" parent="1">
          <mxGeometry x="490" y="660" width="70" height="40" as="geometry" />
        </mxCell>
        <mxCell id="c-2ZzgYbZCkKLCKXprvc-67" value="" style="endArrow=none;html=1;rounded=0;entryX=0;entryY=0;entryDx=0;entryDy=0;exitX=0.5;exitY=1;exitDx=0;exitDy=0;" edge="1" parent="1" target="c-2ZzgYbZCkKLCKXprvc-68" source="c-2ZzgYbZCkKLCKXprvc-25">
          <mxGeometry width="50" height="50" relative="1" as="geometry">
            <mxPoint x="530" y="560" as="sourcePoint" />
            <mxPoint x="540.6316920367931" y="653.4475380551896" as="targetPoint" />
          </mxGeometry>
        </mxCell>
        <mxCell id="c-2ZzgYbZCkKLCKXprvc-68" value="Num_Links" style="ellipse;whiteSpace=wrap;html=1;" vertex="1" parent="1">
          <mxGeometry x="510" y="610" width="70" height="40" as="geometry" />
        </mxCell>
        <mxCell id="c-2ZzgYbZCkKLCKXprvc-69" value="" style="endArrow=none;html=1;rounded=0;exitX=1;exitY=0.5;exitDx=0;exitDy=0;entryX=0;entryY=0;entryDx=0;entryDy=0;" edge="1" parent="1" target="c-2ZzgYbZCkKLCKXprvc-70" source="c-2ZzgYbZCkKLCKXprvc-25">
          <mxGeometry width="50" height="50" relative="1" as="geometry">
            <mxPoint x="740" y="540" as="sourcePoint" />
            <mxPoint x="695" y="530" as="targetPoint" />
          </mxGeometry>
        </mxCell>
        <mxCell id="c-2ZzgYbZCkKLCKXprvc-70" value="Num_Tags" style="ellipse;whiteSpace=wrap;html=1;" vertex="1" parent="1">
          <mxGeometry x="650" y="520" width="70" height="40" as="geometry" />
        </mxCell>
      </root>
    </mxGraphModel>
  </diagram>
</mxfile>
